<svg xmlns="http://www.w3.org/2000/svg">
    <symbol id="tg-icon" viewBox="0 0 48 48">
        <path d="M24 0C10.7452 0 0 10.7452 0 24C0 37.2548 10.7452 48 24 48C37.2548 48 48 37.2548 48 24C48 10.7452 37.2548 0 24 0ZM36.4743 15.1815L32.2117 35.5312C32.1601 35.7774 32.0475 36.0066 31.8842 36.1979C31.7209 36.3891 31.5122 36.5363 31.2772 36.6258C31.0422 36.7154 30.7885 36.7444 30.5393 36.7103C30.2902 36.6762 30.0536 36.58 29.8513 36.4306L23.6511 31.8499L19.8947 35.3936C19.8455 35.44 19.7876 35.4761 19.7243 35.4999C19.661 35.5237 19.5936 35.5346 19.5261 35.532C19.4585 35.5294 19.3922 35.5135 19.3309 35.485C19.2696 35.4565 19.2146 35.416 19.1691 35.3661L19.0883 35.2774L19.741 28.961L31.5052 18.2124C31.5633 18.1594 31.5995 18.0864 31.6066 18.008C31.6136 17.9296 31.591 17.8513 31.5432 17.7888C31.4954 17.7262 31.4259 17.6838 31.3484 17.6699C31.2708 17.6561 31.1909 17.6718 31.1244 17.714L16.0795 27.2362L9.6 25.06C9.42771 25.0022 9.27755 24.8924 9.17013 24.7458C9.0627 24.5992 9.00326 24.4229 8.99998 24.2412C8.99669 24.0595 9.04971 23.8812 9.15177 23.7308C9.25383 23.5804 9.39992 23.4653 9.57 23.4012L34.9219 13.851C35.1174 13.7774 35.3292 13.7577 35.535 13.7939C35.7407 13.8302 35.933 13.921 36.0917 14.057C36.2503 14.193 36.3695 14.3691 36.4368 14.5669C36.5041 14.7647 36.5171 14.977 36.4743 15.1815Z" />
    </symbol>

    <symbol id="fc-icon" viewBox="0 0 48 48">
        <path d="M23.9995 0C10.7451 0 0 10.7453 0 23.9996C0 37.2535 10.7451 48 23.9995 48C37.2541 48 48 37.2538 48 23.9996C47.9995 10.7453 37.2541 0 23.9995 0ZM32.1958 15.3519C32.1958 15.581 32.0103 15.767 31.7809 15.767H25.9384V18.907H31.7804C32.01 18.907 32.1955 19.0929 32.1955 19.322V25.1637C32.1955 25.3931 32.01 25.5786 31.7804 25.5786H26.3533V38.3979C26.3533 38.6275 26.1678 38.813 25.9384 38.813H20.417C20.1875 38.813 20.0021 38.6275 20.0021 38.3979V25.579H16.2186C15.9892 25.579 15.8037 25.3935 15.8037 25.164V19.3225C15.8037 19.0934 15.9892 18.9074 16.2186 18.9074H20.0021V16.5388C20.0021 16.5047 20.0062 16.472 20.0137 16.4405C20.017 13.0662 20.7386 9.20625 26.2666 9.18882C26.2787 9.18795 26.2915 9.18707 26.304 9.18707H31.7804C32.01 9.18707 32.1955 9.37307 32.1955 9.60213L32.1958 15.3519Z" />
    </symbol>

    <symbol id="vk-icon" viewBox="0 0 48 48">
        <path d="M24 0C10.7452 0 0 10.7452 0 24C0 37.2548 10.7452 48 24 48C37.2548 48 48 37.2548 48 24C48 10.7452 37.2548 0 24 0ZM36.784 32.1469H33.7386C33.4087 32.1472 33.083 32.0733 32.7857 31.9304C32.4884 31.7876 32.2271 31.5796 32.0212 31.3219C31.1079 30.1752 29.3087 28.1421 27.4195 27.2688C27.3101 27.2176 27.1895 27.1948 27.069 27.2025C26.9484 27.2102 26.8317 27.2482 26.7297 27.3129C26.6277 27.3776 26.5437 27.467 26.4854 27.5729C26.4271 27.6787 26.3964 27.7975 26.3962 27.9183V30.9303C26.3962 31.09 26.3648 31.2482 26.3036 31.3958C26.2425 31.5434 26.153 31.6776 26.04 31.7905C25.9271 31.9035 25.793 31.9931 25.6454 32.0543C25.4978 32.1154 25.3396 32.1469 25.1798 32.1469H23.7716C21.9403 32.1469 17.9966 31.0321 14.8542 26.4545C12.1767 22.5545 10.9832 19.532 10.2872 17.0813C10.2467 16.9377 10.2401 16.7867 10.2678 16.64C10.2956 16.4934 10.3569 16.3552 10.447 16.2363C10.5372 16.1174 10.6536 16.0209 10.7873 15.9546C10.9209 15.8882 11.0682 15.8538 11.2174 15.8539H14.2982C14.6056 15.8536 14.9048 15.9526 15.1514 16.136C15.398 16.3195 15.5788 16.5776 15.6669 16.8721C16.2398 18.7882 17.7237 22.9218 20.3467 24.9802C20.4266 25.0432 20.5227 25.0825 20.624 25.0935C20.7252 25.1044 20.8275 25.0867 20.9191 25.0423C21.0108 24.9979 21.0881 24.9286 21.1422 24.8424C21.1963 24.7561 21.2251 24.6564 21.2252 24.5545V19.7296C21.2252 18.7761 20.8119 17.8221 20.1669 17.0765C20.074 16.9695 20.0138 16.8381 19.9934 16.6979C19.9731 16.5577 19.9936 16.4146 20.0523 16.2857C20.1111 16.1567 20.2057 16.0474 20.3248 15.9708C20.444 15.8942 20.5827 15.8534 20.7244 15.8534H25.4743C25.7189 15.8534 25.9535 15.9506 26.1265 16.1235C26.2994 16.2965 26.3966 16.531 26.3966 16.7756V23.2748C26.3966 23.3689 26.4225 23.4612 26.4715 23.5415C26.5205 23.6219 26.5906 23.6872 26.6742 23.7303C26.7578 23.7735 26.8517 23.7928 26.9455 23.7861C27.0394 23.7795 27.1296 23.7471 27.2063 23.6926C28.0781 23.072 28.8248 22.1551 29.5117 21.1245C30.376 19.8281 31.4308 17.6852 31.9599 16.573C32.0624 16.3576 32.2238 16.1756 32.4255 16.0482C32.6271 15.9207 32.8608 15.8531 33.0994 15.8531H36.4594C36.5997 15.8531 36.7377 15.8888 36.8603 15.9571C36.9829 16.0253 37.086 16.1237 37.16 16.2429C37.2339 16.3622 37.2761 16.4983 37.2827 16.6385C37.2893 16.7786 37.2599 16.9181 37.1975 17.0438C36.3496 18.7444 34.6982 21.8642 33.1442 23.6946C32.9217 23.9578 32.8128 24.2985 32.8414 24.642C32.8699 24.9854 33.0335 25.3035 33.2963 25.5264C34.3093 26.3919 35.8907 27.9921 37.5956 30.6573C37.6897 30.8032 37.7427 30.9717 37.7491 31.1451C37.7555 31.3186 37.7151 31.4906 37.632 31.643C37.549 31.7954 37.4264 31.9226 37.2772 32.0113C37.128 32.1 36.9576 32.1468 36.784 32.1469Z" />
    </symbol>

</svg>
